<?xml version="1.0" encoding="UTF-8" standalone="no"?>
<!-- Created with Inkscape (http://www.inkscape.org/) -->

<svg
   width="4.0860472mm"
   height="4.0860877mm"
   viewBox="0 0 4.0860472 4.0860877"
   version="1.1"
   id="svg1"
   xml:space="preserve"
   xmlns="http://www.w3.org/2000/svg"
   xmlns:svg="http://www.w3.org/2000/svg"><defs
     id="defs1" /><g
     id="layer1"
     transform="translate(-103.20936,-146.44662)"><path
       style="fill:#000000;stroke:#000000;stroke-width:0.1;stroke-dasharray:none"
       d="m 104.26589,150.48138 c -0.27531,-0.024 -0.50156,-0.12796 -0.69191,-0.31782 -0.13318,-0.13282 -0.23117,-0.30262 -0.27622,-0.47863 -0.0367,-0.14347 -0.0345,-0.0752 -0.0373,-1.13724 -0.003,-1.06137 -0.002,-1.08784 0.0314,-1.22469 0.0239,-0.0977 0.0446,-0.15295 0.0892,-0.23848 0.17221,-0.33068 0.48347,-0.54183 0.85665,-0.58115 0.0825,-0.009 1.94868,-0.009 2.03115,0 0.25722,0.0271 0.4832,0.13457 0.66342,0.31551 0.16331,0.16396 0.25906,0.35398 0.3033,0.60191 0.0131,0.0734 0.0131,2.06735 0,2.14078 -0.0442,0.24775 -0.14097,0.43985 -0.30322,0.60199 -0.14156,0.14147 -0.3072,0.23697 -0.49566,0.28577 -0.12831,0.0332 -0.0804,0.0318 -1.14685,0.0331 -0.54849,6.7e-4 -1.00923,1.8e-4 -1.02385,-0.001 z m 2.07084,-0.17754 c 0.36721,-0.075 0.64153,-0.34484 0.72611,-0.7142 l 0.0148,-0.0646 0.002,-0.99061 c 0.002,-0.70669 1.1e-4,-1.00953 -0.005,-1.05662 -0.0423,-0.37203 -0.30521,-0.68171 -0.66134,-0.77912 -0.13082,-0.0358 -0.12242,-0.0355 -1.16015,-0.0355 -1.03772,0 -1.02932,-2.6e-4 -1.16014,0.0355 -0.35327,0.0966 -0.61582,0.40335 -0.66082,0.772 -0.005,0.041 -0.007,0.3636 -0.007,1.02385 1.2e-4,1.04178 3e-5,1.03883 0.0357,1.16074 0.10236,0.35012 0.39592,0.60482 0.754,0.65417 0.0519,0.007 0.26008,0.009 1.06509,0.007 0.91939,-0.001 1.00515,-0.002 1.05696,-0.013 z m -1.22982,-0.91134 c -0.34013,-0.061 -0.60963,-0.28858 -0.7169,-0.60547 -0.0365,-0.10777 -0.0443,-0.16023 -0.0443,-0.29585 0,-0.13562 0.008,-0.18808 0.0443,-0.29586 0.10199,-0.30131 0.36009,-0.52941 0.67701,-0.59832 0.0692,-0.015 0.23335,-0.0206 0.30509,-0.0103 0.11661,0.0167 0.20966,0.0463 0.30629,0.0975 0.24045,0.12739 0.41218,0.35657 0.47018,0.62747 0.0171,0.0797 0.0171,0.27905 5e-5,0.35901 -0.0772,0.36208 -0.34824,0.63526 -0.7093,0.71482 -0.0678,0.0149 -0.26493,0.0191 -0.33242,0.007 z m 0.22403,-0.15972 c 0.0908,-0.007 0.17356,-0.0317 0.26672,-0.0798 0.0715,-0.0369 0.11611,-0.0694 0.17657,-0.12847 0.066,-0.0645 0.10692,-0.12114 0.14757,-0.20423 0.25594,-0.52308 -0.15147,-1.11912 -0.73296,-1.07231 -0.38403,0.0309 -0.68111,0.35357 -0.68087,0.73949 1.4e-4,0.22547 0.085,0.41488 0.25302,0.56481 0.0917,0.0818 0.21147,0.14238 0.33595,0.16982 0.0392,0.009 0.14579,0.0188 0.16953,0.0162 0.009,-0.001 0.0382,-0.003 0.0645,-0.006 z m 0.92799,-1.67603 c -0.0604,-0.0301 -0.0911,-0.0853 -0.0871,-0.15643 0.003,-0.057 0.0283,-0.10009 0.075,-0.12895 0.0293,-0.0181 0.038,-0.0201 0.0868,-0.0201 0.0488,0 0.0575,0.002 0.0868,0.0201 0.0467,0.0289 0.0717,0.072 0.075,0.12895 0.006,0.0996 -0.0632,0.17338 -0.16172,0.17338 -0.0302,0 -0.0493,-0.004 -0.0746,-0.017 z"
       id="path3" /></g></svg>
